<?xml version="1.0" standalone="no"?>
<!DOCTYPE svg PUBLIC "-//W3C//DTD SVG 1.1//EN" "http://www.w3.org/Graphics/SVG/1.1/DTD/svg11.dtd" >
<svg xmlns="http://www.w3.org/2000/svg">
<metadata>Generated by IcoMoon</metadata>
<defs>
<font id="icomoon" horiz-adv-x="1024">
<font-face units-per-em="1024" ascent="960" descent="-64" />
<missing-glyph horiz-adv-x="1024" />
<glyph unicode="&#x20;" horiz-adv-x="512" d="" />
<glyph unicode="&#xe900;" glyph-name="play3" d="M192 832l640-384-640-384z" />
<glyph unicode="&#xe901;" glyph-name="ctrl" d="M736.014 512c-8.908 0-17.77 3.698-24.096 10.928l-199.918 228.478-199.918-228.478c-11.636-13.3-31.856-14.65-45.154-3.010-13.3 11.638-14.648 31.854-3.010 45.154l224 256c6.076 6.944 14.854 10.928 24.082 10.928s18.006-3.984 24.082-10.928l224-256c11.638-13.3 10.292-33.516-3.010-45.154-6.070-5.312-13.582-7.918-21.058-7.918z" />
<glyph unicode="&#xe902;" glyph-name="delete-passive" d="M1024.58 858.064l-410.209-410.064 410.064-410.064-102.516-102.516-410.064 410.064-410.064-410.064-102.516 102.516 410.064 410.064-410.209 410.064 102.661 102.661 410.064-410.064 410.209 410.064 102.516-102.661z" />
<glyph unicode="&#xe903;" glyph-name="divider" horiz-adv-x="2914" d="M2859.953 566.154c-128.788 0-241.034 72.153-298.535 178.097-53.327-105.945-157.538-178.097-277.11-178.097-118.548 0-221.972 70.971-275.692 175.419-53.799-104.448-157.145-175.419-275.692-175.419s-221.972 70.971-275.692 175.419c-53.799-104.448-157.145-175.419-275.692-175.419s-221.972 70.971-275.692 175.419c-53.799-104.448-157.145-175.419-275.692-175.419-119.572 0-223.783 72.153-277.189 178.018-57.423-105.866-169.669-178.018-298.457-178.018-30.090 0-54.508 24.418-54.508 54.508 0 30.169 24.418 54.587 54.508 54.587 126.976 0 230.242 103.266 230.242 230.164 0 30.169 24.418 54.587 54.587 54.587 4.805 0 9.137-1.575 13.627-2.757 4.175 1.26 8.192 2.836 12.761 2.836 27.963 0 50.649-24.497 50.649-54.587 0-126.976 95.862-230.242 213.78-230.242 117.839 0 213.701 103.266 213.701 230.242 0 30.090 22.686 54.587 50.649 54.587 4.017 0 7.562-1.575 11.343-2.521 3.702 0.945 7.247 2.521 11.264 2.521 27.963 0 50.649-24.497 50.649-54.587 0-126.976 95.862-230.242 213.78-230.242 117.839 0 213.701 103.266 213.701 230.242 0 30.090 22.686 54.587 50.649 54.587 4.017 0 7.562-1.575 11.343-2.521 3.702 0.945 7.247 2.521 11.264 2.521 27.963 0 50.649-24.497 50.649-54.587 0-126.976 95.862-230.242 213.78-230.242 117.839 0 213.701 103.266 213.701 230.242 0 30.090 22.686 54.587 50.727 54.587 3.938 0 7.483-1.575 11.264-2.521 3.702 0.945 7.247 2.521 11.264 2.521 27.963 0 50.649-24.497 50.649-54.587 0-126.976 95.862-230.242 213.78-230.242 117.839 0 213.701 103.266 213.701 230.242 0 30.090 22.686 54.587 50.727 54.587 4.49 0 8.586-1.575 12.761-2.836 4.49 1.182 8.822 2.757 13.706 2.757 30.090 0 54.508-24.418 54.508-54.587 0-126.897 103.266-230.164 230.242-230.164 30.090 0 54.508-24.418 54.508-54.587 0-30.090-24.418-54.508-54.508-54.508zM605.893 45.095c126.976 0 230.242 103.266 230.242 230.164 0 30.169 24.418 54.587 54.508 54.587 4.884 0 9.216-1.575 13.706-2.757 4.175 1.182 8.192 2.757 12.761 2.757 27.963 0 50.649-24.418 50.649-54.508 0-126.976 95.862-230.242 213.78-230.242 117.839 0 213.701 103.266 213.701 230.242 0 30.090 22.686 54.508 50.649 54.508 4.017 0 7.562-1.497 11.343-2.442 3.702 0.945 7.247 2.442 11.264 2.442 27.963 0 50.649-24.418 50.649-54.508 0-126.976 95.862-230.242 213.78-230.242 117.839 0 213.701 103.266 213.701 230.242 0 30.090 22.686 54.508 50.649 54.508 4.569 0 8.665-1.575 12.839-2.757 4.49 1.182 8.822 2.757 13.706 2.757 30.090 0 54.508-24.418 54.508-54.587 0-126.897 103.266-230.164 230.242-230.164 30.090 0 54.508-24.418 54.508-54.508 0-30.169-24.418-54.587-54.508-54.587-128.788 0-241.034 72.153-298.535 178.097-53.327-105.945-157.538-178.097-277.11-178.097-118.548 0-221.972 70.971-275.692 175.419-53.799-104.448-157.145-175.419-275.692-175.419-119.572 0-223.783 72.074-277.189 178.018-57.423-105.945-169.669-178.018-298.457-178.018-30.090 0-54.508 24.418-54.508 54.587 0 30.090 24.418 54.508 54.508 54.508z" />
<glyph unicode="&#xe904;" glyph-name="arrow-left" horiz-adv-x="926" d="M886.235-63.354v710.618h-161.412v-419.349l-406.194 253.821 606.749 337.11-78.366 141.074-845.962-469.952 885.185-553.322z" />
<glyph unicode="&#xe905;" glyph-name="arrow-right" horiz-adv-x="926" d="M39.465-63.354v710.618h161.412v-419.349l406.194 253.821-606.749 337.11 78.366 141.074 845.962-469.952-885.185-553.322z" />
<glyph unicode="&#xe906;" glyph-name="arrow-enter" horiz-adv-x="1534" d="M647.591-63.596v468.795h-647.591v161.514h647.591v80.757h161.514v-419.533l406.45 253.9-607.132 337.322 78.415 141.163 846.496-470.249-885.744-553.671z" />
<glyph unicode="&#xe907;" glyph-name="Briefcase" d="M960 768h-192v128c0 35.36-28.608 63.968-64 63.968h-384c-35.392 0-64-28.608-64-63.968v-128h-192c-35.392 0-64-28.64-64-64.032v-703.968c0-35.392 28.608-64.032 64-64.032h896c35.36 0 64 28.64 64 64.032v703.968c0 35.392-28.64 64.032-64 64.032zM320 864c0 17.664 14.304 32 32 32h320c17.696 0 32-14.336 32-32v-96h-384v96zM960 32c0-17.728-14.304-32-32-32h-832c-17.696 0-32 14.272-32 32v256h352v-64.032c0-17.664 14.304-31.968 32-31.968h128c17.696 0 32 14.304 32 31.968v64.032h352v-256zM544 352v-96h-64v128h64v-32zM960 352h-352v63.968c0 17.696-14.304 32-32 32h-128c-17.696 0-32-14.304-32-32v-63.968h-352v319.968c0 17.696 14.304 32 32 32h832c17.696 0 32-14.304 32-32v-319.968z" />
<glyph unicode="&#xe908;" glyph-name="Equaliser" d="M960-64.032h-896c-35.392 0-64 28.64-64 64v896.032c0 35.36 28.608 63.968 64 63.968h896c35.36 0 64-28.608 64-63.968v-896.032c0-35.36-28.64-64-64-64zM960 864c0 17.664-14.304 32-32 32h-832c-17.696 0-32-14.336-32-32v-832.032c0-17.696 14.304-32 32-32h832c17.696 0 32 14.304 32 32v832.032zM672 128c-77.408 0-141.92 54.944-156.768 128h-291.232c-17.696 0-32 14.304-32 32 0 17.664 14.304 32 32 32h291.232c14.848 73.024 79.36 128 156.768 128 88.384 0 160-71.648 160-160 0-88.384-71.616-160-160-160zM672 384c-53.024 0-96-43.008-96-96s42.976-96 96-96c53.024 0 96 43.008 96 96s-42.976 96-96 96zM800 575.968h-291.232c-14.816-73.024-79.36-127.968-156.768-127.968-88.384 0-160 71.616-160 159.968 0 88.416 71.616 160.032 160 160.032 77.408 0 141.952-54.976 156.768-128h291.232c17.696 0 32-14.304 32-32.032 0-17.696-14.304-32-32-32zM352 704c-53.024 0-96-43.008-96-96.032 0-52.992 42.976-96 96-96s96 43.008 96 96c0 53.024-42.976 96.032-96 96.032z" />
<glyph unicode="&#xe909;" glyph-name="Lifebuoy" d="M935.488 160.288c55.84 81.984 88.512 181.024 88.512 287.68 0 106.688-32.704 205.728-88.544 287.776l6.432 6.4c12.512 12.512 12.512 32.704 0.032 45.28l-90.496 90.464c-12.448 12.512-32.736 12.512-45.28-0.032l-6.4-6.4c-82.016 55.84-181.056 88.512-287.744 88.512s-205.728-32.672-287.744-88.512l-6.4 6.4c-12.544 12.544-32.768 12.512-45.28 0.032l-90.464-90.464c-12.512-12.48-12.512-32.768 0-45.28l6.432-6.4c-55.84-82.048-88.544-181.088-88.544-287.776 0-106.656 32.704-205.696 88.544-287.712l-6.432-6.464c-12.512-12.512-12.544-32.704 0-45.248l90.496-90.496c12.48-12.48 32.736-12.48 45.248 0l6.432 6.432c82.016-55.808 181.024-88.512 287.712-88.512s205.728 32.704 287.744 88.544l6.4-6.4c12.544-12.544 32.768-12.544 45.28-0.032l90.528 90.496c12.448 12.48 12.448 32.704 0 45.28l-6.464 6.432zM960 447.968c0-88.928-26.4-171.424-71.168-241.056l-141.344 141.28c13.12 30.656 20.512 64.384 20.512 99.776 0 35.456-7.392 69.088-20.48 99.712l141.28 141.376c44.8-69.632 71.2-152.128 71.2-241.088zM647.712 266.912l45.248 45.248 181.088-180.928-45.28-45.248-181.056 180.928zM195.232 85.92l-45.248 45.248 180.992 181.056 45.248-45.216-180.992-181.088zM150.016 764.768l45.216 45.216 181.056-180.928-45.184-45.28-181.088 180.992zM444.096 289.6l-90.496 90.528c-6.688 6.656-15.552 9.504-24.32 9.056-5.952 18.528-9.28 38.272-9.28 58.784 0 20.544 3.328 40.288 9.28 58.848 8.768-0.448 17.632 2.368 24.352 9.056l90.528 90.56c6.72 6.72 9.536 15.552 9.056 24.288 18.528 5.984 38.272 9.28 58.784 9.28 20.544 0 40.288-3.328 58.848-9.312-0.48-8.736 2.336-17.6 9.056-24.352l90.528-90.496c6.72-6.72 15.584-9.536 24.32-9.056 5.984-18.56 9.248-38.304 9.248-58.816 0-20.544-3.328-40.288-9.28-58.816-8.736 0.48-17.632-2.368-24.352-9.056l-90.528-90.56c-6.688-6.656-9.504-15.552-9.024-24.32-18.56-5.92-38.272-9.216-58.816-9.216s-40.288 3.296-58.848 9.28c0.48 8.736-2.336 17.632-9.056 24.32zM828.768 809.984l45.248-45.216-180.96-181.056-45.28 45.216 180.992 181.056zM512 896c88.96 0 171.456-26.432 241.088-71.2l-141.312-141.312c-30.656 13.088-64.352 20.48-99.776 20.48s-69.056-7.392-99.68-20.448l-141.376 141.28c69.632 44.768 152.128 71.2 241.056 71.2zM64 447.968c0 88.96 26.4 171.456 71.2 241.12l141.312-141.312c-13.088-30.656-20.512-64.32-20.512-99.808 0-35.392 7.424-69.088 20.512-99.712l-141.312-141.344c-44.8 69.632-71.2 152.128-71.2 241.056zM512 0c-88.928 0-171.424 26.4-241.056 71.168l141.28 141.344c30.656-13.12 64.32-20.512 99.776-20.512 35.424 0 69.056 7.392 99.68 20.48l141.376-141.312c-69.632-44.768-152.128-71.168-241.056-71.168z" />
<glyph unicode="&#xe90a;" glyph-name="Rocket" d="M960-64.032h-896c-35.36 0-64 28.64-64 64v111.968c0 40.672 27.36 57.76 64 80.064l162.304 92.736c-1.408 30.88-2.304 63.712-2.304 99.264 0 320 160 512 288 575.968 128-63.968 288-255.968 288-575.968 0-35.552-0.896-68.384-2.304-99.264l162.304-92.736c37.12-22.24 64-37.344 64-80.064v-111.968c0-35.36-28.608-64-64-64zM230.848 213.6l-134.336-76.736c-11.136-6.784-28.832-17.6-32.48-22.784 0.064-0.128-0.032-0.864-0.032-2.144v-111.968h201.984c-12.352 44.832-26.816 114.624-35.136 213.632zM512 886.016c-94.208-62.656-224-221.952-224-502.016 0-207.2 27.648-329.024 44.544-384.032h358.848c16.864 55.2 44.608 177.408 44.608 384.032 0 280.064-129.792 439.36-224 502.016zM960 111.936c0 2.784-0.32 3.936-0.32 3.936-2.624 3.328-18.464 12.768-30.016 19.68l-2.56 1.536-133.952 76.512c-8.32-99.008-22.784-168.8-35.104-213.632h201.952v111.968zM512 448c-53.024 0-96 43.008-96 95.968 0 53.024 42.976 96.032 96 96.032s96-43.008 96-96.032c0-52.96-42.976-95.968-96-95.968zM512 576c-17.696 0-32-14.336-32-32.032 0-17.664 14.304-32 32-32s32 14.336 32 32c0 17.696-14.304 32.032-32 32.032z" />
<glyph unicode="&#xe90b;" glyph-name="Star" d="M808.64-63.936c-5.344 0-10.656 1.344-15.52 4l-281.12 155.488-281.12-155.488c-10.72-5.952-23.936-5.184-33.952 1.856-9.984 7.072-15.104 19.232-13.152 31.264l54.080 331.296-228.704 234.496c-8.384 8.608-11.232 21.12-7.424 32.512 3.808 11.36 13.632 19.648 25.504 21.472l314.784 48.096 141.024 300.448c5.28 11.232 16.544 18.4 28.96 18.4s23.68-7.168 28.96-18.4l141.056-300.448 314.784-48.096c11.84-1.824 21.664-10.112 25.472-21.472 3.84-11.392 0.96-23.904-7.424-32.512l-228.704-234.496 54.080-331.296c1.952-12.032-3.168-24.192-13.152-31.264-5.504-3.872-11.968-5.856-18.432-5.856zM512 164.128c5.344 0 10.656-1.344 15.488-4.032l238.944-132.128-46.048 282.144c-1.632 10.016 1.6 20.224 8.672 27.488l196.512 201.504-270.144 41.248c-10.528 1.6-19.584 8.384-24.096 18.048l-119.328 254.176-119.296-254.176c-4.544-9.664-13.6-16.448-24.128-18.048l-270.144-41.248 196.512-201.504c7.072-7.264 10.304-17.472 8.672-27.488l-46.048-282.144 238.944 132.128c4.832 2.688 10.144 4.032 15.488 4.032z" />
<glyph unicode="&#xe90c;" glyph-name="Wallet" d="M992 255.968h-32v-255.968c0-35.392-28.64-64.032-64-64.032h-832c-35.36 0-64 28.64-64 64.032v832c0.032 70.688 57.312 127.936 128 127.936l704 0.032c70.688-0.096 128-57.28 128-127.968v-320.032h32c17.696 0 32-14.272 32-31.968v-192c0-17.728-14.304-32.032-32-32.032zM832 896v-0.032h-704c-35.328 0-63.968-28.672-64-63.968h832c0 35.296-28.672 63.904-64 64zM896 735.968c0 17.696-14.304 32-32 32h-768c-17.696 0-32-14.304-32-32v-703.968c0-17.696 14.304-32 32-32h768c17.696 0 32 14.304 32 32v223.968h-256c-17.696 0-32 14.304-32 32.032v192c0 17.696 14.304 31.968 32 31.968h256v224zM960 447.968h-288v-127.968h288v127.968zM736 415.968c17.696 0 32-14.304 32-32 0-17.664-14.304-31.968-32-31.968s-32 14.304-32 31.968c0 17.696 14.304 32 32 32z" />
<glyph unicode="&#xe90d;" glyph-name="Man" d="M1024 0c0-35.376-28.624-64-64-64h-896c-35.376 0-64 28.624-64 64v128c0 26.496 10.752 50.496 28.128 67.872l-0.224 0.224c93.552 76.048 205.44 130.176 327.872 155.536-41.76 40.688-67.776 97.472-67.776 160.368-26.512 0-48 21.488-48 48v32c0 14.16 6.256 26.768 16 35.552v140.448c0 106.032 85.968 192 192 192h128c106.032 0 192-85.968 192-192v-140.448c9.744-8.784 16-21.392 16-35.552v-32c0-26.512-21.488-48-48-48 0-62.896-26.016-119.68-67.76-160.368 122.416-25.344 234.304-79.488 327.856-155.536l-0.224-0.224c17.376-17.376 28.128-41.376 28.128-67.872v-128zM736 768c0 88.368-71.648 160-160 160h-128c-88.368 0-160-71.632-160-160v-112c0 53.008 42.992 96 96 96 35.344 0 64 28.656 64 64 0 8.848 7.152 16 16 16s16-7.152 16-16c0-35.344 28.656-64 64-64h96c53.008 0 96-42.992 96-96v112zM704 512v16c0 8.832 7.152 16 16 16h16c8.848 0 16 7.152 16 16v32c0 8.848-7.152 16-16 16h-16c-8.848 0-16 7.168-16 16v32c0 35.344-28.656 64-64 64h-96c-33.408 0-62.816 17.088-80 42.976-17.184-25.888-46.592-42.976-80-42.976-35.344 0-64-28.656-64-64v-32c0-8.832-7.152-16-16-16h-16c-8.848 0-16-7.152-16-16v-32c0-8.848 7.152-16 16-16h16c8.848 0 16-7.168 16-16v-16c0-106.032 85.968-192 192-192s192 85.968 192 192zM635.44 325.152c-35.408-23.44-77.792-37.152-123.44-37.152-45.632 0-88.032 13.712-123.44 37.152-26.8-4.528-53.2-10.192-78.928-17.536 52-51.44 123.024-83.616 201.936-83.616 79.008 0 150.128 32.256 202.128 83.808-25.504 7.264-51.696 12.848-78.256 17.344zM992 128c0 17.664-7.152 33.68-18.752 45.248l0.064 0.064c-66.56 53.616-142.752 95.632-225.424 123.632-58.48-64.336-142.528-104.944-236.32-104.944-93.696 0-177.664 40.528-236.144 104.72-82.4-27.984-158.368-69.936-224.736-123.408l0.064-0.064c-11.6-11.568-18.752-27.584-18.752-45.248v-128c0-17.68 14.336-32 32-32h896c17.664 0 32 14.32 32 32v128zM631.328 609.776c-2.352-1.216-4.848-1.776-7.312-1.776-5.792 0-11.392 3.152-14.24 8.672-0.24 0.352-4.848 7.328-17.776 7.328-13.088 0-17.408-6.704-17.856-7.472-4.352-7.424-13.92-10.416-21.52-6.32-7.584 4.048-10.768 13.040-7.024 20.752 4.512 9.296 19.344 25.040 46.4 25.040 26.448 0 41.504-15.504 46.224-24.672 4.048-7.84 0.96-17.504-6.896-21.552zM471.296 609.776c-2.336-1.216-4.848-1.776-7.312-1.776-5.792 0-11.392 3.152-14.24 8.672-0.24 0.352-4.848 7.328-17.776 7.328-13.088 0-17.408-6.704-17.856-7.472-4.352-7.424-13.92-10.416-21.52-6.32-7.584 4.048-10.768 13.040-7.024 20.752 4.512 9.296 19.344 25.040 46.4 25.040 26.448 0 41.504-15.504 46.224-24.672 4.048-7.84 0.96-17.504-6.896-21.552z" />
<glyph unicode="&#xe90e;" glyph-name="mountainside" horiz-adv-x="1155" d="M1151.614-52.678c-4.289-7.091-11.786-11.322-20.074-11.322h-1122.13l-6.994 11.051c-3.652 6.801-3.304 15.070 0.947 21.543l223.019 341.939c19.804 30.372 53.287 48.514 89.571 48.514 31.976 0 61.981-14.162 82.364-38.835l36.284-43.916 278.721 532.132 439.006-838.096c3.826-7.323 3.574-15.94-0.715-23.011zM578.077-25.358h270.491v64.84c-31.899-39.492-80.645-64.84-135.245-64.84s-103.327 25.349-135.245 64.84v-64.84zM368.524 295.598c-13.022 15.766-32.188 24.808-52.572 24.808-23.166 0-44.573-11.592-57.228-30.971l-205.283-314.793h223.135l138.568 264.54-46.621 56.417zM713.322 725.156l-109.124-208.336 31.841-31.841 38.642 38.642 38.642-38.642 38.642 38.642 38.642-38.642 31.841 31.841-109.124 208.336zM841.245 480.961l-50.64-50.62-38.642 38.642-38.642-38.642-38.642 38.642-38.642-38.642-50.62 50.62-265.216-506.32h219.233v64.84c-31.899-39.492-80.645-64.84-135.245-64.84-10.665 0-19.321 8.656-19.321 19.321s8.656 19.321 19.321 19.321c68.125 0 124.078 50.794 133.352 116.408-24.441-24.093-57.788-39.125-94.71-39.125-10.665 0-19.321 8.636-19.321 19.34 0 10.665 8.656 19.301 19.321 19.301 53.267 0 96.604 43.336 96.604 96.604v0.483c-16.191-12.249-36.13-19.804-57.962-19.804-10.665 0-19.321 8.636-19.321 19.321s8.656 19.321 19.321 19.321c31.976 0 57.962 25.986 57.962 57.962 0 10.684 8.656 19.321 19.321 19.321s19.321-8.636 19.321-19.321c0-31.976 26.006-57.962 57.962-57.962 10.684 0 19.321-8.636 19.321-19.321s-8.636-19.321-19.321-19.321c-21.832 0-41.752 7.554-57.962 19.823v-0.502c0-53.267 43.336-96.604 96.604-96.604 10.684 0 19.321-8.636 19.321-19.301 0-10.704-8.636-19.34-19.321-19.34-36.922 0-70.27 15.032-94.691 39.125 9.274-65.613 65.227-116.408 133.333-116.408 68.125 0 124.078 50.814 133.352 116.408-24.441-24.074-57.769-39.125-94.71-39.125-10.665 0-19.321 8.636-19.321 19.34 0 10.665 8.656 19.301 19.321 19.301 53.267 0 96.604 43.336 96.604 96.604v0.502c-16.191-12.269-36.13-19.823-57.962-19.823-10.665 0-19.321 8.636-19.321 19.321s8.656 19.321 19.321 19.321c31.957 0 57.962 25.986 57.962 57.962 0 10.684 8.656 19.321 19.321 19.321 10.684 0 19.321-8.636 19.321-19.321 0-31.976 26.006-57.962 57.962-57.962 10.684 0 19.321-8.636 19.321-19.321s-8.636-19.321-19.321-19.321c-21.832 0-41.771 7.554-57.962 19.823v-0.502c0-53.267 43.336-96.604 96.604-96.604 10.665 0 19.321-8.636 19.321-19.301 0-10.704-8.656-19.34-19.321-19.34-36.922 0-70.27 15.051-94.691 39.125 9.274-65.594 65.208-116.408 133.333-116.408 10.684 0 19.321-8.656 19.321-19.321s-8.636-19.321-19.321-19.321c-54.6 0-103.347 25.349-135.245 64.84v-64.84h219.233l-265.197 506.32zM1061.096 712.694c-27.687 0-50.234-22.547-50.234-50.234 0-10.684-8.656-19.321-19.321-19.321s-19.321 8.636-19.321 19.321c0 46.872-38.12 85.011-85.011 85.011-10.665 0-19.321 8.636-19.321 19.321s8.656 19.321 19.321 19.321c46.698 0 86.924-26.315 107.964-64.589 16.287 18.162 39.666 29.831 65.922 29.831 10.684 0 19.321-8.656 19.321-19.34 0-10.665-8.636-19.321-19.321-19.321zM249.624 650.868c-85.224 0-154.566 69.342-154.566 154.585 0 85.205 69.342 154.547 154.566 154.547s154.566-69.342 154.566-154.547c0-85.243-69.342-154.585-154.566-154.585zM249.624 921.358c-63.913 0-115.925-51.992-115.925-115.905 0-63.952 52.011-115.944 115.925-115.944 63.932 0 115.925 51.992 115.925 115.944 0 63.913-51.992 115.905-115.925 115.905z" />
<glyph unicode="&#xe90f;" glyph-name="Rocket2" d="M992 128h-275.008c-8.256-26.032-14.48-41.872-15.28-43.872-4.864-12.16-16.64-20.128-29.712-20.128h-79.952c0-0.592-0.016-1.184-0.048-1.744-0.624-75.616-41.664-126.256-80-126.256-38.64 0-80 51.44-80 128h-80c-13.072 0-24.848 7.968-29.712 20.128-0.8 2-7.024 17.84-15.264 43.872h-275.024c-17.664 0-32 14.32-32 32v96c0 11.248 5.888 21.648 15.536 27.44l240.848 144.512c0-0.064 0-0.144 0.016-0.192-0.144 6.736-0.4 13.408-0.4 20.24 0 256.416 123.072 429.84 238.256 506.624 5.376 3.584 11.552 5.376 17.744 5.376s12.368-1.792 17.744-5.376c115.184-76.784 238.256-250.208 238.256-506.624 0-6.832-0.256-13.504-0.4-20.24 0.016 0.048 0.016 0.128 0.016 0.192l240.848-144.512c9.648-5.792 15.536-16.192 15.536-27.44v-96c0-17.68-14.336-32-32-32zM512-32.016c16 0 48 32.016 48 96.016h-96c0-64 32-96.016 48-96.016zM352 96h320c0 0 20.064 50.176 37.712 128h-395.424c17.648-77.824 37.712-128 37.712-128zM32 160h265.472c0.032-0.128 0.064-0.24 0.112-0.368-2.848 10.016-5.744 20.72-8.64 32.368h-256.944v-32zM257.872 391.536l-225.872-135.536v-32h249.424c-10.512 47.776-19.792 105.104-23.552 167.536zM512 928c-96-64-224-224-224-480 0-70.432 8.624-136.512 19.536-192h408.928c10.912 55.488 19.536 121.568 19.536 192 0 256-128 416-224 480zM992 256l-225.872 135.536c-3.76-62.432-13.040-119.76-23.552-167.536h249.424v32zM992 192h-256.944c-2.896-11.648-5.792-22.352-8.64-32.368 0.048 0.128 0.080 0.24 0.112 0.368h265.472v32zM512 480c-53.008 0-96 42.976-96 96 0 53.008 42.992 96 96 96s96-42.992 96-96c0-53.024-42.992-96-96-96zM512 640c-35.344 0-64-28.656-64-64s28.656-64 64-64c35.344 0 64 28.656 64 64s-28.656 64-64 64z" />
<glyph unicode="&#xe910;" glyph-name="Trophycup" d="M848 496h-1.616c-14.624-154.592-134.016-278.32-286.384-300.176v-131.824h112c35.376 0 64-28.624 64-64v-48c0-8.832-7.152-16-16-16h-416c-8.848 0-16 7.168-16 16v48c0 35.376 28.624 64 64 64h112v131.824c-152.368 21.856-271.84 145.616-286.464 300.176h-1.536c-97.2 0-176 78.816-176 176v128c0 35.392 28.624 64 64 64h112v32c0 35.392 28.624 64 64 64h544c35.376 0 64-28.608 64-64v-32h112c35.376 0 64-28.608 64-64v-128c0-97.184-78.8-176-176-176zM176 768h-80v-96c0-44.176 35.808-80 80-80v176zM176 560c-61.856 0-112 50.16-112 112v112c0 8.864 7.152 16 16 16h96v32h-112c-17.68 0-32-14.32-32-32v-128c0-79.504 64.464-144 144-144v32zM352 32c-17.664 0-32-14.304-32-32v-32h384v32c0 17.696-14.32 32-32 32h-320zM528 64v128.832c-5.344-0.256-10.592-0.832-16-0.832s-10.656 0.576-16 0.832v-128.832h32zM816 896c0 17.68-14.32 32-32 32h-544c-17.664 0-32-14.32-32-32v-368c0-167.872 136.112-304 304-304s304 136.128 304 304v368zM848 592c44.192 0 80 35.824 80 80v96h-80v-176zM992 800c0 17.68-14.336 32-32 32h-112v-32h96c8.848 0 16-7.136 16-16v-112c0-61.84-50.144-112-112-112v-32c79.536 0 144 64.496 144 144v128zM585.040 571.616l11.92-73.024c0.992-6.048-1.568-12.128-6.576-15.664-2.736-1.936-5.984-2.928-9.216-2.928-2.656 0-5.328 0.656-7.744 2l-61.456 33.968-61.456-33.968c-5.376-2.96-11.968-2.592-16.96 0.928-5.008 3.536-7.568 9.616-6.592 15.664l11.936 73.024-50.352 51.632c-4.176 4.288-5.616 10.56-3.712 16.24 1.904 5.696 6.816 9.824 12.752 10.752l68.928 10.528 30.976 65.968c2.64 5.616 8.272 9.2 14.48 9.2s11.84-3.584 14.48-9.2l30.976-65.968 68.928-10.528c5.936-0.928 10.848-5.056 12.752-10.752 1.904-5.68 0.48-11.952-3.712-16.24l-50.352-51.632zM544.144 630.416c-5.264 0.8-9.808 4.176-12.064 9.024l-20.112 42.832-20.112-42.832c-2.256-4.848-6.8-8.224-12.064-9.024l-46.608-7.136 34.256-35.088c3.536-3.648 5.152-8.736 4.336-13.76l-7.92-48.464 40.368 22.304c2.416 1.344 5.072 2 7.744 2s5.328-0.656 7.744-2l40.368-22.304-7.92 48.464c-0.816 5.024 0.8 10.112 4.336 13.76l34.256 35.088-46.608 7.136z" />
<glyph unicode="&#xe911;" glyph-name="Target" d="M512 960c-135.632 0-258.848-52.832-350.448-138.928l-17.552 17.552v41.376c0 2.688-0.816 5.088-1.984 7.312-0.224 1.008-0.784 2.096-2.064 3.376l-64.64 64.624c-2.896 2.912-6.896 4.688-11.312 4.688-8.848 0-16-7.168-16-16v-32h-32c-8.848 0-16-7.168-16-16 0-4.432 1.792-8.416 4.688-11.312v-0.016l63.984-63.968c0.016-0.016 0.016-0.016 0.032-0.032l0.64-0.64c1.28-1.28 2.368-1.84 3.36-2.064 2.208-1.152 4.624-1.968 7.296-1.968h41.376l17.552-17.552c-86.096-91.6-138.928-214.832-138.928-350.448 0-282.768 229.232-512 512-512s512 229.232 512 512c0 282.768-229.232 512-512 512zM112 848h-25.36l-31.952 31.936 25.312 0.064 0.192 25.184 31.808-31.808v-25.376zM512-32c-265.088 0-480 214.912-480 480 0 126.784 49.248 242.032 129.552 327.824l45.248-45.248c-68.736-74.192-110.8-173.456-110.8-282.576 0-229.76 186.256-416 416-416s416 186.24 416 416c0 229.744-186.256 416-416 416-109.12 0-208.368-42.064-282.576-110.8l-45.248 45.248c85.808 80.288 201.024 129.552 327.824 129.552 265.088 0 480-214.912 480-480s-214.912-480-480-480zM274.96 662.416c-51.392-56.768-82.96-131.808-82.96-214.416 0-176.736 143.264-320 320-320s320 143.264 320 320c0 176.736-143.264 320-320 320-82.608 0-157.664-31.568-214.416-82.96l-45.536 45.52c68.4 62.96 159.664 101.44 259.952 101.44 212.080 0 384-171.92 384-384s-171.92-384-384-384c-212.080 0-384 171.92-384 384 0 100.272 38.48 191.568 101.424 259.936l45.536-45.52zM342.832 594.544c-34.064-39.296-54.832-90.448-54.832-146.544 0-123.712 100.288-224 224-224s224 100.288 224 224c0 123.712-100.288 224-224 224-56.096 0-107.248-20.768-146.544-54.832l-45.248 45.248c50.944 45.616 118.032 73.584 191.792 73.584 159.056 0 288-128.944 288-288 0-159.072-128.944-288-288-288s-288 128.928-288 288c0 73.776 27.968 140.848 73.584 191.792l45.248-45.248zM410.976 526.4c-16.848-21.68-26.976-48.832-26.976-78.4 0-70.688 57.312-128 128-128s128 57.312 128 128c0 70.688-57.312 128-128 128-29.584 0-56.72-10.128-78.4-26.976l-45.504 45.504c33.456 28.304 76.656 45.472 123.904 45.472 106.032 0 192-85.968 192-192s-85.968-192-192-192c-106.032 0-192 85.968-192 192 0 47.248 17.152 90.448 45.472 123.904l45.504-45.504zM500.688 436.688c6.256-6.256 16.368-6.256 22.624 0 6.256 6.24 6.256 16.368 0 22.624l-66.88 66.88c15.696 11.168 34.832 17.808 55.568 17.808 53.008 0 96-42.992 96-96 0-53.024-42.992-96-96-96s-96 42.976-96 96c0 20.72 6.64 39.872 17.808 55.568l66.88-66.88z" />
<glyph unicode="&#xe912;" glyph-name="Browser" d="M959.84-64h-896.032c-35.392 0-64.032 28.608-64.032 64v896c0 35.392 28.64 64 64.032 64h896.032c35.36 0 64-28.608 64-64v-896c0-35.392-28.64-64-64-64zM959.84 864c0 17.696-14.336 32-32 32h-832.032c-17.696 0-32-14.304-32-32v-160h896.032v160zM959.84 640h-896.032v-608c0-17.696 14.304-32 32-32h832.032c17.664 0 32 14.304 32 32v608zM799.84 160h-256.032c-17.664 0-32 14.304-32 32v256c0 17.664 14.336 32 32 32h256.032c17.664 0 32-14.336 32-32v-256c0-17.696-14.336-32-32-32zM767.84 416h-192.032v-192.032h192.032v192.032zM415.808 160h-192c-17.696 0-32 14.304-32 32 0 17.664 14.304 31.968 32 31.968h192c17.696 0 32-14.304 32-31.968 0-17.696-14.304-32-32-32zM415.808 288h-192c-17.696 0-32 14.304-32 32s14.304 32 32 32h192c17.696 0 32-14.304 32-32s-14.304-32-32-32zM415.808 416h-192c-17.696 0-32 14.304-32 32 0 17.664 14.304 32 32 32h192c17.696 0 32-14.336 32-32 0-17.696-14.304-32-32-32zM159.808 832c17.664 0 32-14.304 32-32s-14.336-32-32-32c-17.696 0-32 14.304-32 32s14.304 32 32 32zM287.808 832h192c17.696 0 32-14.304 32-32s-14.304-32-32-32h-192c-17.696 0-32 14.304-32 32s14.304 32 32 32z" />
<glyph unicode="&#xe913;" glyph-name="IDCard" horiz-adv-x="1170" d="M1096.96-64h-1024.037c-40.448 0-73.143 32.695-73.143 73.143v731.429c0 40.448 32.695 73.143 73.143 73.143h146.286v109.714c0 20.187 16.347 36.571 36.571 36.571h146.286c20.224 0 36.571-16.384 36.571-36.571v-109.714h292.571v109.714c0 20.187 16.384 36.571 36.571 36.571h146.322c20.187 0 36.571-16.384 36.571-36.571v-109.714h146.286c40.411 0 73.143-32.695 73.143-73.143v-731.429c0-40.448-32.731-73.143-73.143-73.143zM365.495 886.821h-73.143v-146.249h73.143v146.249zM877.531 886.821h-73.179v-146.249h73.179v146.249zM1096.96 704c0 20.224-16.384 36.571-36.571 36.571h-109.714v-36.571c0-20.224-16.384-36.571-36.571-36.571h-146.322c-20.187 0-36.571 16.347-36.571 36.571v36.571h-292.571v-36.571c0-20.224-16.347-36.571-36.571-36.571h-146.286c-20.224 0-36.571 16.347-36.571 36.571v36.571h-109.714c-20.224 0-36.571-16.347-36.571-36.571v-658.286c0-20.224 16.347-36.571 36.571-36.571h950.894c20.187 0 36.571 16.347 36.571 36.571v658.286zM914.103 265.143h-146.322c-20.187 0-36.571 16.384-36.571 36.571s16.384 36.571 36.571 36.571h146.322c20.187 0 36.571-16.384 36.571-36.571s-16.384-36.571-36.571-36.571zM840.96 411.429h-73.179c-20.187 0-36.571 16.347-36.571 36.571s16.384 36.571 36.571 36.571h73.179c20.187 0 36.571-16.347 36.571-36.571s-16.384-36.571-36.571-36.571zM596.517 157.33c-3.877-1.317-7.753-1.902-11.593-1.902-15.323 0-29.55 9.691-34.67 24.978-1.134 3.145-31.598 84.736-148.187 84.736-118.565 0-147.895-83.858-148.187-84.736-6.4-19.127-26.917-29.477-46.263-23.077-19.127 6.363-29.477 27.063-23.077 46.263 1.463 4.462 31.817 91.355 135.753 123.099-38.949 26.295-64.512 70.802-64.512 121.307 0 80.786 65.499 146.286 146.286 146.286s146.286-65.499 146.286-146.286c0-50.505-25.563-95.013-64.512-121.307 103.936-31.744 134.254-118.638 135.753-123.099 6.4-19.2-3.95-39.899-23.077-46.263zM402.066 521.143c-40.411 0-73.143-32.731-73.143-73.143s32.731-73.143 73.143-73.143c40.411 0 73.143 32.731 73.143 73.143s-32.731 73.143-73.143 73.143z" />
<glyph unicode="&#xe914;" glyph-name="Tea" d="M607.808 64c-148.416 0-278.368 77.984-352 195.008v-3.008h-64c-106.048 0-192.032 85.952-192.032 192v128c0 35.36 28.64 64 64.032 64h928.032c17.696 0 32-14.304 32-32v-128c0-229.728-186.272-416-416.032-416zM191.808 480v96h-96c-17.696 0-32-14.304-32-32v-96c0-70.688 57.312-128 128-128h32c-20.576 49.248-32 103.264-32 160zM959.84 576h-704.032v-96c0-194.432 157.6-352 352-352 194.432 0 352.032 157.568 352.032 352v96zM799.84 704c-17.696 0-32 14.304-32 32v64c0 17.664 14.304 32 32 32 17.664 0 32-14.336 32-32v-64c0-17.696-14.336-32-32-32zM607.808 704c-17.664 0-32 14.304-32 32v192c0 17.696 14.336 32 32 32 17.696 0 32-14.304 32-32v-192c0-17.696-14.304-32-32-32zM415.808 704c-17.696 0-32 14.304-32 32v128c0 17.696 14.304 32 32 32s32-14.304 32-32v-128c0-17.696-14.304-32-32-32zM223.808 0h768.032c17.696 0 32-14.304 32-32s-14.304-32-32-32h-768.032c-17.696 0-32 14.304-32 32s14.304 32 32 32z" />
<glyph unicode="&#xe915;" glyph-name="Eye" d="M1020.8 436.352c-1.44-3.68-149.152-372.352-509.536-372.352-360.416 0-508.128 368.672-509.568 372.352-2.912 7.488-2.912 15.808 0 23.264 1.44 3.712 149.152 372.384 509.568 372.384 360.384 0 508.096-368.672 509.536-372.384 2.912-7.456 2.912-15.776 0-23.264zM511.264 768c-286.016 0-418.464-260.32-445.056-320 26.592-59.712 159.040-320 445.056-320s418.432 260.288 445.024 320c-26.592 59.68-159.008 320-445.024 320zM511.264 256c-105.984 0-191.904 85.952-191.904 192 0 106.016 85.92 192 191.904 192 105.952 0 191.904-85.984 191.904-192 0-106.048-85.952-192-191.904-192zM511.264 576c-70.656 0-127.936-57.312-127.936-128s57.28-128 127.936-128c70.624 0 127.936 57.312 127.936 128s-57.312 128-127.936 128z" />
<glyph unicode="&#xe916;" glyph-name="Globe" d="M512 959.968c-282.784 0-512-229.184-512-511.968s229.216-512 512-512c282.784 0 512 229.216 512 512s-229.216 511.968-512 511.968zM958.368 480h-159.232c-7.648 153.792-69.888 292.928-167.456 399.328 179.328-49.664 313.12-207.68 326.688-399.328zM480 876.96v-396.96h-191.008c8.672 157.568 80.704 298.176 191.008 396.96zM480 416v-396.992c-110.304 98.848-182.336 239.392-191.008 396.992h191.008zM544 19.008v396.992h191.008c-8.672-157.6-80.704-298.144-191.008-396.992zM544 480v396.96c110.304-98.784 182.336-239.392 191.008-396.96h-191.008zM392.32 879.328c-97.568-106.4-159.808-245.536-167.456-399.328h-159.232c13.568 191.648 147.36 349.664 326.688 399.328zM65.632 416h159.232c7.648-153.824 69.888-292.928 167.456-399.328-179.328 49.632-313.12 207.68-326.688 399.328zM631.68 16.672c97.568 106.4 159.808 245.504 167.456 399.328h159.232c-13.568-191.648-147.36-349.696-326.688-399.328z" />
<glyph unicode="&#xe917;" glyph-name="Photoday" d="M960-64h-896c-35.36 0-64 28.608-64 64v896c0 35.36 28.64 64 64 64h896c35.36 0 64-28.64 64-64v-896c0-35.392-28.64-64-64-64zM960 863.968c0 17.728-14.304 32.032-32 32.032h-832c-17.696 0-32-14.304-32-32.032v-773.6l210.848 210.816c24.992 25.088 65.504 25.088 90.496 0l82.752-82.72 210.752 210.72c24.992 25.056 65.504 25.056 90.496 0l210.656-210.624v645.408zM960 128.064l-233.28 233.28c-12.512 12.48-32.736 12.48-45.248 0 0 0-154.112-154.112-188.128-188.16-34.016-33.984-56.96-33.504-90.496 0-33.536 33.536-60.128 60.16-60.128 60.16-12.512 12.48-32.768 12.48-45.248 0l-224.032-224.032c-5.824 5.824-9.44 13.824-9.44 22.688 0-8.864 3.584-16.864 9.44-22.688 5.792-5.76 13.76-9.312 22.56-9.312h832c17.696 0 32 14.304 32 32v96.064zM320 512c-70.688 0-128 57.312-128 128s57.312 128 128 128c70.688 0 128-57.312 128-128s-57.312-128-128-128zM320 704c-35.36 0-64-28.64-64-64s28.64-64 64-64c35.36 0 64 28.64 64 64s-28.64 64-64 64z" />
<glyph unicode="&#xe918;" glyph-name="Plane" d="M512 896c26.624 0 47.84-9.536 64.864-29.088 26.688-30.752 33.952-74.432 31.744-89.984l-0.096-0.8-0.096-0.832-16.544-143.904 368.128-171.776v-75.616h-388.352l-28.832-332.096 51.936-51.904h-165.504l51.936 51.936-28.864 332.064h-388.32v44.768l368.448 196.512-16.8 147.648c-2.016 16.896 6.080 63.776 34.048 95.328 16.768 18.912 36.544 27.744 62.304 27.744zM512 960c-126.56 0-166.656-138.688-159.872-194.784l11.808-103.904-347.008-185.056c-10.432-5.568-16.928-16.448-16.928-28.256v-96c0-17.696 14.304-32 32-32h361.632l21.216-243.904-85.472-85.472c-9.152-9.152-11.904-22.912-6.944-34.88s16.64-19.744 29.568-19.744h320c0.096 0 0.16 0 0.256 0 0.128 0 0.288 0 0.384 0 17.664 0 32 14.304 32 32 0 10.752-5.312 20.32-13.472 26.144l-82.016 81.952 21.184 243.904h361.664c17.696 0 32 14.304 32 32v128c0 12.416-7.2 23.744-18.464 28.992l-344.8 160.896 11.264 98.080c8 56.672-33.44 192.032-160 192.032v0z" />
<glyph unicode="&#xe919;" glyph-name="scroll" d="M96-32v127.936h832v-127.936h-832zM108.48 928h563.52v-128.064h-332.48l201.216-321.984 267.328 481.088 111.872-62.080-372.672-670.912-438.784 701.952z" />
<glyph unicode="&#xe91a;" glyph-name="Magnifyingglass" d="M995.392-35.392c-37.472-37.472-98.208-37.472-135.68 0l-170.72 170.72c-69.664-44.672-152.32-70.912-241.216-70.912-247.296 0-447.776 200.48-447.776 447.808 0 247.296 200.48 447.776 447.776 447.776 247.328 0 447.776-200.48 447.776-447.776 0-88.896-26.208-171.52-70.848-241.184l170.688-170.752c37.472-37.44 37.472-98.208 0-135.68zM831.584 512.224c0 211.968-171.84 383.808-383.808 383.808s-383.808-171.84-383.808-383.808c0-211.968 171.84-383.84 383.808-383.84s383.808 171.872 383.808 383.84zM950.144 55.104l-164.192 164.192c-13.952-16.128-29.056-31.232-45.184-45.216l164.16-164.256c12.512-12.48 32.736-12.48 45.216 0 12.512 12.512 12.512 32.736 0 45.28zM703.648 512.224c0 141.312-114.56 255.84-255.872 255.84-17.664 0-31.968 14.336-31.968 32s14.304 32 31.968 32c176.64 0 319.84-143.2 319.84-319.84 0-17.696-14.304-32-31.968-32-17.696 0-32 14.304-32 32z" />
<glyph unicode="&#xe91b;" glyph-name="Target2" d="M512 960c-129.888 0-248.064-48.736-338.336-128.416l-13.664 13.664v82.752c0 17.664-14.304 32-32 32s-32-14.336-32-32v-64h-64c-17.696 0-32-14.304-32-32s14.304-32 32-32h82.752l13.664-13.664c-79.68-90.272-128.416-208.48-128.416-338.336 0-282.752 229.216-512.032 512-512.032s512 229.28 512 512.032c0 282.752-229.216 512-512 512zM512 0c-247.424 0-448 200.544-448 448 0 112.192 41.536 214.496 109.664 293.088l90.624-90.624c-45.152-55.168-72.288-125.632-72.288-202.464 0-176.736 143.296-320 320-320s320 143.264 320 320c0 176.736-143.296 319.968-320 319.968-76.832 0-147.328-27.104-202.464-72.224l-90.624 90.592c78.592 68.128 180.896 109.664 293.088 109.664 247.424 0 448-200.544 448-448s-200.576-448-448-448zM402.112 512.608c-11.232-18.976-18.112-40.928-18.112-64.608 0-70.688 57.312-128 128-128s128 57.312 128 128c0 70.656-57.312 128-128 128-23.68 0-45.632-6.88-64.64-18.144l-92.16 92.192c43.36 33.696 97.632 53.92 156.8 53.92 141.376 0 256-114.592 256-255.968s-114.624-256-256-256c-141.376 0-256 114.624-256 256 0 59.136 20.256 113.44 53.952 156.8l92.16-92.192zM489.376 425.376c12.512-12.48 32.736-12.48 45.248 0 12.512 12.512 12.512 32.736 0 45.248l-39.008 39.008c5.248 1.376 10.688 2.368 16.384 2.368 35.328 0 64-28.672 64-64 0-35.36-28.672-64-64-64s-64 28.64-64 64c0 5.696 0.96 11.104 2.368 16.352l39.008-38.976z" />
<glyph unicode="&#xe91c;" glyph-name="Pen" d="M1005.248 595.328c-12.544-12.48-28.928-18.688-45.312-18.688s-32.768 6.208-45.312 18.688l-256.256 256.32c-25.024 25.024-25.024 65.536 0 90.56s65.6 25.024 90.624 0l256.256-256.256c25.024-25.024 25.024-65.536 0-90.624zM895.872 448.512v-320.32c0-31.36-22.656-58.048-53.568-63.168l-768.704-128.128c-3.52-0.576-7.040-0.896-10.56-0.896-16.832 0-33.152 6.656-45.248 18.752-14.656 14.656-21.312 35.392-17.92 55.808l128.128 768.768c5.12 30.848 31.872 53.568 63.168 53.568h320.32c17.024 0 33.28-6.72 45.312-18.752l320.32-320.32c12.032-12.032 18.752-28.288 18.752-45.312zM767.744 421.952l-282.752 282.816h-239.552l-86.336-518.016 164.992 164.928c-2.752 10.496-4.8 21.376-4.8 32.768 0 70.656 57.536 128.128 128.128 128.128 70.656 0 128.128-57.472 128.128-128.128s-57.472-128.128-128.128-128.128c-11.392 0-22.208 1.92-32.768 4.736l-164.992-164.928 518.080 86.272v239.552z" />
<glyph unicode="&#xe91d;" glyph-name="Globe2" d="M512-64c-282.784 0-512 229.216-512 512s229.216 512 512 512c282.784 0 512-229.216 512-512s-229.216-512-512-512zM195.552 130.912c17.184-1.76 33.504-3.328 51.328-3.328 9.888 0 20.416 0.48 31.936 1.728 6.144 0.64 11.008 1.504 15.744 2.336 7.424 1.312 14.624 2.528 24.224 3.264 18.848 1.536 30.656 1.024 48.192 0.288l5.568-0.224c12.48-0.512 22.752-3.040 30.944-5.088 8.768-2.176 13.728-3.488 19.744-1.792 17.152 5.152 25.664 14.112 35.232 37.184 1.472 3.552 1.344 6.944 0.576 15.712-0.96 11.392-2.336 26.944 4.8 45.024 14.304 36.064 35.552 52.512 61.888 70.272 14.592 9.888 34.368 11.776 55.328 13.728 7.872 0.736 20.096 1.92 26.88 3.52 0.192 1.76-0.032 3.776-0.704 6.080-2.56 8.736-10.24 17.344-18.656 20.96-7.072-0.736-15.008-1.664-22.976-2.592-24.192-2.688-44.352-3.328-57.856 3.040-28.64 13.504-32.96 40.736-35.264 55.36-0.992 6.048-1.984 12.32-3.776 14.624l-3.296 4.128c-9.92 12.576-13.12 16.32-21.28 19.232-0.352-0.448-5.376-2.912-8.736-4.544-13.632-6.528-37.536-14.912-59.36-6.144-22.048 8.832-31.040 26.848-36.416 37.632-0.864 1.728-1.984 4-2.976 5.696-1.504-9.728-5.312-21.376-15.456-31.136-26.496-25.696-102.464-37.184-126.88-37.184-4.224 0-7.904 0.256-10.912 0.704-15.648 2.24-25.568 9.408-32.128 14.144-2.368 1.696-4.352 3.104-5.312 3.36-12.736 3.488-52.864 10.336-81.088 13.696 4.512-116.896 53.28-222.464 130.688-299.68zM870.272 716.128c-39.2-5.792-65.184-11.328-95.584-35.904-54.944-43.552-79.040-70.464-67.968-106.304 2.4-7.904 8.576-11.616 28.416-20.32 20.832-9.12 49.44-21.632 63.456-54.592 12.96-28.672 4.32-56.128-1.984-76.192-5.216-16.576-6.080-21.696-4.032-23.872 14.336-14.432 33.984-16.896 59.744-7.296 8.576 3.232 10.88 7.808 11.616 42.272 0.608 25.44 1.312 57.184 19.2 85.472 16.672 25.856 36.576 40.128 54.144 52.736 1.504 1.056 2.688 2.080 4.128 3.136-15.264 51.488-39.68 98.944-71.136 140.864zM937.088 484.96c-8.288-13.056-8.672-32.224-9.152-52.48-0.736-32.512-1.856-81.6-53.248-100.768-17.44-6.528-34.432-9.792-50.496-9.792-29.632 0-56.512 11.264-77.76 32.64-28.672 30.816-17.952 64.928-10.88 87.456 4.736 15.072 7.424 24.704 4.448 31.264-4 9.344-12.352 13.76-30.56 21.728-22.112 9.728-52.448 22.976-63.872 60.032-25.92 84 43.296 138.816 89.12 175.136 29.536 23.904 57.344 35.040 86.112 41.824-80.352 76.672-188.96 124-308.8 124-231.648 0-422.144-175.808-445.536-401.248 32.608-3.52 79.52-11.52 96.192-16.064 12.192-3.264 20.512-9.312 25.984-13.248 1.408-0.992 2.656-2.144 4.256-2.848 22.464 0.096 65.888 9.952 80.896 17.632 0 0.864 0 1.76 0.064 2.592 0.384 10.656 1.504 38.88 30.016 50.304 6.624 2.784 14.048 4.288 21.6 4.288 13.696 0 24.64-4.928 33.472-8.992l3.040-1.344c20.896-9.088 29.664-26.688 34.912-37.184 0.896-1.792 2.080-4.192 3.072-5.888 2.176 0.864 5.28 2.368 7.552 3.456 13.216 6.432 36.128 14.752 57.6 7.328 26.272-9.184 38.624-24.928 50.56-40.064l2.976-3.776c12.384-15.36 15.072-32.224 16.992-44.544 0.32-1.952 0.736-4.512 1.152-6.624 6.528 0.096 14.176 0.992 21.76 1.856 23.072 2.56 42.144 3.328 55.168-2.176 26.048-11.232 46.976-34.912 54.912-61.792 6.624-22.656 3.488-45.152-8.864-63.456-15.008-22.496-44.384-25.248-72.736-27.904-9.088-0.864-22.816-2.176-26.944-3.872-21.472-14.656-29.728-22.304-36.736-40-1.44-3.616-1.344-7.232-0.544-15.84 0.992-11.552 2.4-27.456-5.216-45.792-11.36-27.36-30.208-60.416-76.096-73.984-18.944-5.664-38.976-2.624-53.44 0.96-6.464 1.632-12.064 3.008-18.112 3.232l-5.76 0.288c-14.688 0.576-24.384 1.056-40.384-0.192-7.296-0.576-12.704-1.536-18.304-2.528-6.016-1.024-12.128-2.080-19.808-2.88-2.112-0.224-3.776-0.128-5.856-0.32 67.776-41.216 147.040-65.376 232.16-65.376 247.424 0 448 200.544 448 448 0 19.648-1.696 38.848-4.16 57.824-7.008-5.92-13.344-12.448-18.752-20.864zM544.256 586.336c-19.392-10.784-40.256-22.336-63.712-22.336-16 0-30.464 5.312-43.008 15.712-35.616 29.664-18.144 69.76-8.704 91.328 3.392 7.808 6.592 15.168 8.192 21.632 2.656 10.624 4.16 21.568 5.696 32.192 5.376 37.504 12.736 88.832 68.48 102.208 3.328 0.8 7.040 1.28 10.816 1.28 23.968 0 44.096-18.080 56.768-33.216 17.888-21.312 36.864-56.448 31.712-85.344l-1.44-8.224c-7.136-41.216-15.232-87.904-64.8-115.232zM521.184 762.88c-7.456-4.416-10.56-15.424-15.104-47.136-1.824-12.768-3.776-25.824-6.944-38.496-2.848-11.584-7.552-22.336-11.648-31.808-2.336-5.312-5.568-12.704-6.88-17.44 6.912 0.064 20.608 7.648 31.616 13.76 22.816 12.576 27.040 31.84 33.792 70.784l1.472 8.448c-0.096 9.088-15.744 33.728-26.304 41.888z" />
<glyph unicode="&#xe91e;" glyph-name="Heart" horiz-adv-x="1260" d="M945.231 959.724c-87.001 0-165.77-35.249-222.759-92.199l-92.318-91.609-92.318 91.609c-56.99 56.95-135.759 92.199-222.759 92.199-174.001 0-315.077-140.918-315.077-314.722 0-86.882 30.917-142.73 113.231-224.926l461.233-460.761c30.759-30.759 80.62-30.759 111.38 0l460.012 459.5c81.369 81.329 114.452 139.303 114.452 226.186 0 173.804-141.076 314.722-315.077 314.722zM1102.769 487.7l-472.615-472.064-472.615 472.064c-29.223 29.184-78.769 80.266-78.769 157.302 0 130.363 105.826 236.032 236.308 236.032 70.144 0 133.199-30.484 176.522-79.045 10.594-11.934 90.545-117.602 138.555-117.602 49.861 0 128.394 106.181 139.303 118.311 43.244 48.089 105.984 78.336 175.774 78.336 130.521 0 236.308-105.669 236.308-236.032 0-77.785-38.912-117.524-78.769-157.302z" />
<glyph unicode="&#xe91f;" glyph-name="line" horiz-adv-x="30720" d="M0-64v1024h30720v-1024h-30720z" />
<glyph unicode="&#xe920;" glyph-name="cog" horiz-adv-x="1028" d="M963.357 255.406h-117.689l56.468-97.839c17.602-30.514 7.131-69.444-23.255-86.982l-220.539-127.325c-30.514-17.602-69.38-7.195-86.982 23.319l-57.431 99.316-57.367-99.316c-17.666-30.514-56.532-40.921-87.046-23.319l-220.539 127.325c-30.45 17.538-40.857 56.468-23.255 86.982l56.468 97.839h-117.689c-35.461 0-64.177 28.716-64.177 64.112v256.835c0 35.461 28.716 64.177 64.177 64.177h117.689l-56.468 97.903c-17.602 30.514-7.195 69.38 23.255 86.982l220.539 127.325c30.514 17.602 69.38 7.131 87.046-23.319l57.367-99.381 57.431 99.381c17.602 30.45 56.468 40.921 86.918 23.319l220.603-127.325c30.386-17.602 40.857-56.468 23.255-86.982l-56.468-97.903h117.689c35.461 0 64.177-28.716 64.177-64.177v-256.835c0-35.397-28.716-64.112-64.177-64.112zM899.116 512.241h-103.621c-13.041 57.817-43.555 109.017-85.569 147.947l50.108 86.789-110.237 63.598-49.915-86.34c-27.174 8.48-56.018 12.912-85.954 12.912s-58.78-4.433-85.954-12.977l-49.915 86.404-110.302-63.598 50.172-86.789c-42.078-38.93-72.528-90.13-85.569-147.947h-103.621v-128.482h103.749c13.169-57.688 43.684-108.696 85.633-147.561l-50.365-87.175 110.302-63.663 50.172 86.982c27.11-8.416 55.825-12.912 85.697-12.912 29.808 0 58.523 4.497 85.633 12.912l50.236-86.982 110.237 63.663-50.365 87.175c42.014 38.866 72.528 89.873 85.697 147.561h103.749v128.482zM514.248 320.096c-71.050 0-128.482 57.496-128.482 128.482 0 71.115 57.431 128.482 128.482 128.482 70.986 0 128.482-57.367 128.482-128.482 0-70.986-57.496-128.482-128.482-128.482z" />
<glyph unicode="&#xe921;" glyph-name="Eye2" horiz-adv-x="1368" d="M1359.275 416.341c-7.851-19.712-197.888-480.341-677.291-480.341s-669.355 460.629-677.205 480.341c-8.107 20.309-8.107 42.923 0 63.317 7.851 19.627 197.803 480.341 677.205 480.341s669.44-460.715 677.291-480.341c8.021-20.395 8.021-43.008 0-63.317zM681.984 789.248c-301.312 0-457.472-251.563-503.723-341.504 46.165-90.795 200.619-341.077 503.723-341.077 301.312 0 457.557 251.563 503.808 341.589-46.165 90.709-200.704 340.992-503.808 340.992zM681.984 277.333c-94.293 0-170.837 76.373-170.837 170.667s76.544 170.667 170.837 170.667c94.379 0 170.837-76.373 170.837-170.667s-76.459-170.667-170.837-170.667z" />
<glyph unicode="&#xe922;" glyph-name="Rocket3" d="M960-64h-896c-35.392 0-64 28.608-64 64v108.992c0 35.392 25.216 62.72 64 83.008l128 73.088c0 64.448 0 128.768 0 182.912 0 192 128 383.936 320 512 192-128.064 320-320 320-512 0-54.144 0-118.464 0-182.912l128-73.088c33.984-22.016 64-47.616 64-83.008v-108.992c0-35.392-28.608-64-64-64zM896 80.832c-0.896 0.64-1.792 1.28-2.816 1.92l-189.184 108.096v257.152c0 119.872-71.872 249.344-192 351.872-120.128-102.528-192-232-192-351.872v-257.152l-192-109.76v-17.088h768v16.832zM512 575.936c35.392 0 64-28.544 64-63.936s-28.608-64-64-64c-35.392 0-64 28.608-64 64s28.608 63.936 64 63.936z" />
<glyph unicode="&#xe923;" glyph-name="Eye22" horiz-adv-x="1451" d="M1401.020 416.343c-7.85-19.711-197.878-480.318-677.258-480.318s-669.322 460.607-677.173 480.318c-8.106 20.308-8.106 42.921 0 63.314 7.85 19.626 197.793 480.318 677.173 480.318s669.408-460.692 677.258-480.318c8.021-20.394 8.021-43.006 0-63.314zM723.762 789.232c-301.297 0-457.45-251.551-503.698-341.488 46.163-90.79 200.609-341.061 503.698-341.061 301.297 0 457.535 251.551 503.784 341.573-46.163 90.705-200.694 340.976-503.784 340.976zM723.762 277.342c-94.289 0-170.829 76.37-170.829 170.658s76.54 170.658 170.829 170.658c94.374 0 170.829-76.37 170.829-170.658s-76.455-170.658-170.829-170.658z" />
<glyph unicode="&#xe924;" glyph-name="trophycup2" d="M960 832h-128v64c0 35.392-28.608 64-64 64h-512c-35.36 0-64-28.608-64-64v-64h-128c-35.36 0-64-28.608-64-64v-192.032c0-105.984 85.984-191.968 192-191.968h26.816c45.312-103.68 143.872-178.752 261.184-190.336v-193.664h-128c-17.696 0-32-14.272-32-32v-32h384v32c0 17.728-14.304 32-32 32h-128v193.664c117.312 11.584 215.872 86.656 261.184 190.336h26.816c106.048 0 192 85.984 192 191.968v192.032c0 35.392-28.608 64-64 64zM192 448c-70.688 0-128 57.312-128 127.968v160.032c0 17.728 14.304 32 32 32h96v-256c0-21.92 2.208-43.264 6.432-64h-6.432zM512 256c-141.376 0-256 114.624-256 256v352c0 17.696 14.304 32 32 32h448c17.696 0 32-14.304 32-32v-352c0-141.376-114.624-256-256-256zM960 575.968c0-70.656-57.312-127.968-128-127.968h-6.432c4.224 20.736 6.432 42.080 6.432 64v256h96c17.696 0 32-14.272 32-32v-160.032z" />
</font>
</defs>
</svg>
